<?xml version="1.0" encoding="utf-8"?>
<!-- Generator: Adobe Illustrator 24.3.0, SVG Export Plug-In . SVG Version: 6.00 Build 0)  -->
<svg version="1.1" id="a5c16198-98a1-478b-8909-43624583dcf2"
	 xmlns="http://www.w3.org/2000/svg" xmlns:xlink="http://www.w3.org/1999/xlink" x="0px" y="0px" viewBox="0 0 553.2 551.7"
	 style="enable-background:new 0 0 553.2 551.7;" xml:space="preserve">
<style type="text/css">
	.st0{fill:#1B66CA;}
	.st1{fill:#FFFFFF;}
</style>
<g>
	<circle class="st0" cx="276.9" cy="275.9" r="270.8"/>
	<path class="st1" d="M389.1,393.9H164.7c-8.5,0-15.5-6.9-15.5-15.5V243c0-8.5,6.9-15.5,15.5-15.5h224.4c8.5,0,15.5,6.9,15.5,15.5
		v135.4C404.6,386.9,397.7,393.9,389.1,393.9z M164.7,243v135.4h224.4l0-135.4L164.7,243z"/>
	<path class="st1" d="M346.6,243H207.3v-61.9c0-44.8,29.3-77.4,69.6-77.4s69.6,32.5,69.6,77.4V243z M222.8,227.5h108.3v-46.4
		c0-36.4-22.3-61.9-54.2-61.9s-54.2,25.5-54.2,61.9L222.8,227.5z"/>
	<circle class="st1" cx="276.9" cy="306.8" r="15.5"/>
</g>
</svg>
