<?xml version="1.0" encoding="utf-8"?>
<!-- Generator: Adobe Illustrator 24.3.0, SVG Export Plug-In . SVG Version: 6.00 Build 0)  -->
<svg version="1.1" id="Capa_1" xmlns="http://www.w3.org/2000/svg" xmlns:xlink="http://www.w3.org/1999/xlink" x="0px" y="0px"
	 viewBox="0 0 714 714" style="enable-background:new 0 0 714 714;" xml:space="preserve">
<style type="text/css">
	.st0{fill:#1B66CA;}
	.st1{fill:#FFFFFF;}
</style>
<circle class="st0" cx="357" cy="357" r="352"/>
<g>
	<g>
		<path class="st1" d="M509.7,420.1c-23.5-23.5-51.5-40.9-82.1-51.5c32.7-22.5,54.2-60.3,54.2-102.9c0-68.9-56-124.9-124.9-124.9
			s-124.9,56-124.9,124.9c0,42.6,21.5,80.4,54.2,102.9c-30.6,10.5-58.6,28-82.1,51.5c-40.8,40.8-63.3,95-63.3,152.7h33.8
			c0-100.5,81.8-182.3,182.2-182.3s182.2,81.8,182.2,182.3H573C573,515.2,550.5,460.9,509.7,420.1z M357,356.9
			c-50.2,0-91.1-40.9-91.1-91.1s40.9-91.1,91.1-91.1s91.1,40.9,91.1,91.1S407.2,356.9,357,356.9z"/>
	</g>
</g>
</svg>
